<svg width="474" height="43" viewBox="0 0 474 43" fill="none" xmlns="http://www.w3.org/2000/svg">
<g clip-path="url(#clip0_1760_36285)">
<path d="M42.7635 0H0V43H42.7635V0Z" fill="url(#paint0_linear_1760_36285)"/>
<path d="M41.9714 0.758301H0.735474V41.5969H41.9714V0.758301Z" fill="url(#paint1_linear_1760_36285)"/>
<path d="M33.3433 11.3092C30.703 12.8733 29.8921 12.9966 27.0254 14.7314C28.2431 13.4587 29.3445 12.0786 30.3164 10.6077C27.2144 10.7412 24.1261 11.0992 21.0753 11.6789C24.1327 10.2205 27.3757 9.19332 30.7124 8.62643C30.1749 7.82065 25.4601 5.26113 24.2625 4.73975C27.9202 5.05214 31.4789 6.09641 34.7295 7.81117C35.8377 7.55567 36.9686 7.41276 38.1053 7.38459C37.6994 8.3158 36.9913 9.0811 36.0968 9.55544C36.5305 10.7309 35.4838 17.2151 34.6257 18.9309C34.6257 16.2197 34.3523 12.7975 33.3433 11.3471" fill="white"/>
<path d="M14.0218 34.5537C12.6116 34.0506 11.3253 33.2489 10.25 32.2027C10.5876 31.195 11.0603 30.2382 11.655 29.3588C10.4197 29.5484 9.51447 29.6811 8.44892 29.8897H8.48664C7.65482 28.3147 7.08165 26.6148 6.7893 24.856C6.51134 26.6717 6.51134 28.5195 6.7893 30.3352C5.94258 30.5547 5.11606 30.8465 4.31873 31.2074C5.35544 31.883 6.43244 32.494 7.54367 33.0369C8.14004 34.3757 8.99229 35.5835 10.052 36.5918C9.78976 35.7105 9.71269 34.784 9.82565 33.8712C11.1874 34.2876 12.5989 34.5172 14.0218 34.5537" fill="white"/>
<path d="M17.9729 13.0063C17.4726 13.7122 17.0786 14.4885 16.8036 15.3099C19.2929 15.6964 21.6846 16.5623 23.8475 17.86C21.713 17.4086 19.5249 17.2681 17.3505 17.4429C16.8301 17.4533 16.3146 17.5461 15.8229 17.7178C15.1406 19.4996 14.6475 21.3489 14.3519 23.235C13.7295 21.7277 12.8337 18.7131 12.8337 18.7131C11.1081 19.6611 7.1759 23.3866 7.1759 23.3866C8.26169 21.0172 9.74852 18.8553 11.5701 16.9973C10.8063 16.22 8.80724 15.8313 7.35507 15.7744C8.71659 15.3486 10.1268 15.1001 11.5513 15.035C12.3521 14.9876 13.155 14.9876 13.9558 15.035C15.1573 14.1128 16.5197 13.4248 17.9729 13.0063" fill="white"/>
<path d="M22.1125 31.8327C21.4713 32.7144 20.7924 33.5581 20.0663 34.3733C18.8814 34.723 17.6518 34.8954 16.417 34.8852C17.1646 35.2678 17.961 35.5453 18.7838 35.7099C18.0663 36.3727 17.2934 36.9722 16.4736 37.5016C18.0108 37.1516 19.4926 36.5902 20.8772 35.8332C21.4768 35.8618 22.0776 35.8237 22.6689 35.7194C22.5482 35.321 22.4506 34.9158 22.3765 34.506C23.492 33.6342 24.5445 32.6839 25.526 31.6621C24.488 32.3923 23.3866 33.0268 22.2351 33.5581C22.1785 32.9893 22.1502 32.4868 22.1125 31.8327Z" fill="white"/>
<path d="M53.4944 3.64016C53.6076 5.21379 53.6925 9.16683 53.6925 10.6172C53.6925 12.0676 53.6925 16.3904 53.4756 18.3242V18.4759H60.4064C63.7916 18.4759 67.4032 17.3952 67.4032 14.3617C67.4032 12.4658 66.0359 11.0533 63.471 10.276C65.357 9.77354 66.63 8.45586 66.63 6.94858C66.63 4.47437 63.8011 3.53588 61.1513 3.479H53.485V3.63068L53.4944 3.64016ZM58.8505 5.16639C61.7454 5.16639 62.8204 5.7731 62.8204 7.36569C62.8282 7.7672 62.6908 8.15791 62.4338 8.46534C62.0319 8.84088 61.5513 9.121 61.0274 9.28506C60.5036 9.44912 59.9498 9.49295 59.4068 9.41331H59.3408L58.5393 11.5178H59.3503C60.0243 11.4494 60.7051 11.5331 61.3429 11.7627C61.9807 11.9923 62.5596 12.362 63.0373 12.845C63.3632 13.227 63.5378 13.7163 63.5276 14.2195C63.5276 15.888 62.0849 16.7316 59.2277 16.7316H57.5209C57.4172 14.5324 57.4078 11.5557 57.4078 10.6646C57.4078 9.62186 57.4078 7.28985 57.5209 5.29911C57.9728 5.22323 58.4301 5.18518 58.8882 5.18535" fill="#1A171B"/>
<path d="M83.3676 3.46973H80.0012L80.1427 7.26161C80.1993 9.15756 80.2653 11.0535 80.3879 12.9494C80.0055 12.107 79.5277 11.3118 78.964 10.5795C78.964 10.5226 75.4373 5.10024 74.2492 3.574L74.1737 3.46973H70.2698V3.6214C70.383 5.19503 70.4679 9.14808 70.4679 10.5985C70.4679 12.0489 70.4679 16.3811 70.251 18.3055V18.4572H73.7305V18.3339C73.5514 14.6653 73.5514 10.9777 73.5514 7.41329C73.7315 8.00304 74.0158 8.55535 74.3906 9.0438C74.4472 9.1386 80.4256 17.9073 80.7273 18.4287V18.4856H83.5562V18.3339C83.3488 16.438 83.3394 11.9541 83.3394 10.6269C83.3394 9.29975 83.4242 5.21399 83.5374 3.64984V3.46973H83.3676Z" fill="#1A171B"/>
<path d="M87.3752 3.6404C87.4884 5.22351 87.5733 9.16707 87.5733 10.6269C87.5733 12.0868 87.5733 16.4001 87.3564 18.3245V18.4762H91.5149V18.3245C91.3734 16.9499 91.3263 14.3146 91.3074 12.2859H92.6559C98.1251 12.2859 100.784 10.8165 100.784 7.77355C100.784 4.30398 97.0124 3.4982 93.9383 3.42236H87.3375V3.6404H87.3752ZM92.4578 5.29935C94.4003 5.29935 95.7676 5.66906 96.4183 6.48431C96.7205 6.87364 96.8803 7.35563 96.8709 7.84939C96.8709 10.0202 94.4569 10.4753 92.4295 10.4753H91.6092L91.2791 10.4279V8.53193C91.2791 7.58396 91.2791 6.47483 91.2791 5.44154C91.6647 5.36247 92.0555 5.31177 92.4484 5.28987L92.4578 5.29935Z" fill="#1A171B"/>
<path d="M108.686 3.6404C108.809 5.22351 108.884 9.16707 108.884 10.6269C108.884 12.0868 108.884 16.4001 108.658 18.3245V18.4762H112.835V18.3245C112.694 16.9499 112.637 14.3146 112.628 12.2859H113.967C119.427 12.2859 122.095 10.8165 122.095 7.77355C122.095 4.30398 118.371 3.4982 115.24 3.42236H108.734V3.57404L108.686 3.6404ZM113.778 5.29935C115.721 5.29935 117.079 5.66906 117.739 6.48431C118.038 6.87454 118.195 7.35666 118.182 7.84939C118.182 10.0202 115.768 10.4753 113.741 10.4753H112.92L112.6 10.4279V8.53193C112.6 7.58396 112.6 6.48431 112.656 5.44154C113.026 5.36251 113.401 5.31181 113.778 5.28987V5.29935Z" fill="#1A171B"/>
<path d="M127.593 3.46973H127.527V3.55504C126.753 5.68798 121.793 16.5802 121.011 18.2581L120.917 18.4666H124.471V18.3813C124.783 17.3575 125.179 16.201 125.65 14.9497H131.544C132.194 16.5612 132.666 17.7936 132.873 18.3908V18.4666H136.994L130.393 3.47921H127.564L127.593 3.46973ZM128.602 7.88728C128.941 8.61721 129.809 10.6174 130.752 12.9494H126.423C127.197 11.0535 127.923 9.36611 128.611 7.90624L128.602 7.88728Z" fill="#1A171B"/>
<path d="M138.663 3.64021C138.767 5.21384 138.861 9.16688 138.861 10.6173C138.861 12.0677 138.861 16.3904 138.644 18.3148V18.476H142.803V18.3243C142.595 16.4283 142.577 11.9444 142.577 10.6173C142.577 9.57451 142.577 7.2425 142.699 5.38447C143.039 5.38447 143.51 5.29916 143.821 5.29916C145.764 5.29916 147.131 5.66887 147.782 6.48412C148.083 6.87017 148.243 7.34896 148.234 7.83972C148.234 9.56503 146.612 10.4466 145.113 10.532C144.822 10.5604 144.528 10.5604 144.236 10.532H143.953L144.132 10.7974C145.585 12.9588 147.801 16.7222 148.725 18.5234V18.5897H153.166L153.034 18.3717C152.883 18.1347 149.969 13.8309 148.734 12.0013L148.668 11.8212C150.931 11.1387 152.044 9.84942 152.044 7.88712C152.044 4.41754 148.272 3.61177 145.189 3.54541H138.682V3.69709L138.663 3.64021Z" fill="#1A171B"/>
<path d="M159.041 3.46973H155.061V3.6214C155.175 5.20451 155.259 9.15756 155.259 10.608C155.259 12.0584 155.259 16.3811 155.033 18.3055V18.4572H159.182V18.3055C158.975 16.4095 158.956 11.9256 158.956 10.608C158.956 9.29027 159.041 5.20451 159.154 3.6214V3.46973H159.041Z" fill="#1A171B"/>
<path d="M162.935 3.64016C163.048 5.21379 163.133 9.16683 163.133 10.6172C163.133 12.0676 163.133 16.3904 162.916 18.3242V18.4759H169.847C173.232 18.4759 176.844 17.3952 176.844 14.3617C176.844 12.4658 175.467 11.0533 172.912 10.276C174.798 9.77354 176.071 8.45586 176.071 6.94858C176.071 4.47437 173.242 3.53588 170.592 3.479H162.945V3.63068L162.935 3.64016ZM168.291 5.16639C171.186 5.16639 172.261 5.7731 172.261 7.36569C172.272 7.76931 172.13 8.16205 171.865 8.46534C171.465 8.84011 170.986 9.11982 170.463 9.28388C169.941 9.44794 169.389 9.49216 168.848 9.41331H168.791L167.999 11.5178H168.791C169.465 11.4514 170.145 11.536 170.783 11.7655C171.42 11.995 171.999 12.3637 172.478 12.845C172.796 13.2242 172.97 13.7046 172.968 14.2006C172.968 15.869 171.526 16.7127 168.678 16.7127H166.905C166.811 14.5134 166.801 11.5368 166.801 10.6457C166.801 9.6029 166.801 7.26141 166.915 5.28015C167.363 5.20466 167.817 5.16661 168.272 5.16639" fill="#1A171B"/>
<path d="M187.028 3.46973H184.199V3.55504C183.388 5.8207 178.126 17.3101 177.693 18.2581L177.598 18.4572H181.163V18.3718C181.474 17.348 181.87 16.1915 182.341 14.9402H188.273C188.914 16.5612 189.385 17.7841 189.602 18.3813V18.4666H193.723L187.122 3.47921H187.028V3.46973ZM185.312 7.88728C185.642 8.59825 186.49 10.5985 187.452 12.9589H183.133C183.897 11.063 184.661 9.35663 185.312 7.89676V7.88728Z" fill="#1A171B"/>
<path d="M194.873 7.36587C194.873 10.0107 197.514 11.0724 199.833 12.0204C201.644 12.7504 203.511 13.5182 203.511 14.7695C203.54 15.1117 203.435 15.4519 203.219 15.7175C202.794 16.2294 201.899 16.4474 200.503 16.3811C198.862 16.2495 197.261 15.8021 195.788 15.0634L195.062 14.7221V18.0116L195.534 18.1159L195.816 18.1728C197.187 18.5355 198.595 18.7391 200.013 18.7795C204.388 18.7795 207 17.0352 207 14.1249C207 11.4232 204.303 10.333 201.927 9.38505C200.173 8.68356 198.353 7.95362 198.353 6.80657C198.353 6.4653 198.353 5.46993 200.597 5.46993C202.058 5.54509 203.489 5.90572 204.812 6.53166L205.67 6.89189V3.55503L204.822 3.40335C203.581 3.14155 202.318 2.99557 201.05 2.96729C197.363 2.96729 194.826 4.73051 194.826 7.36587" fill="#1A171B"/>
<path d="M59.9066 24.9316C62.9996 24.9316 66.6771 25.7943 66.6771 29.226C66.6771 31.1219 65.5644 32.4301 63.3579 33.1126C64.7245 35.4017 66.2101 37.6167 67.8087 39.7484H63.4239C62.4809 37.9094 60.2744 34.1838 58.7091 31.776C59.085 31.8487 59.4672 31.8837 59.8501 31.8803C61.0854 31.8803 62.8581 30.9323 62.8581 29.226C62.8581 27.0835 60.2933 26.7043 59.0108 26.7043C58.4754 26.7042 57.9402 26.7326 57.4078 26.7897C57.3229 28.6287 57.2852 30.9323 57.2852 31.9656C57.2852 33.2738 57.2852 37.6534 57.5115 39.7295H53.4285C53.6359 37.6724 53.6736 34.9896 53.6736 31.9656C53.7284 29.6189 53.6592 27.2709 53.4662 24.9316H59.9066V24.9316Z" fill="#1A171B"/>
<path d="M81.0951 24.9315V27.0834C79.0542 26.9018 77.0045 26.8385 74.9564 26.8938H73.2119C73.2119 28.2873 73.1459 29.9557 73.1459 31.1217L78.5302 30.989V33.2357L73.127 33.1125C73.127 34.4017 73.127 36.2597 73.2308 37.786C76.0597 37.786 78.766 37.7291 81.5194 37.549V39.6914H69.2609C69.4495 37.6343 69.4683 33.2452 69.4683 31.9559C69.4683 30.515 69.3835 26.6094 69.2797 24.8936H81.0951V24.9315Z" fill="#1A171B"/>
<path d="M92.0901 24.9316C92.6558 26.4484 97.5027 37.2553 98.6343 39.7295H94.5701C94.3438 39.0564 93.8534 37.8335 93.2216 36.2409H87.3941C86.932 37.4923 86.5549 38.6298 86.2154 39.7295H82.6604C83.4996 37.8904 88.4408 27.1025 89.2612 24.9316H92.0901ZM92.4107 34.2976C91.4677 31.9751 90.6002 29.9843 90.3079 29.2923C89.6289 30.7332 88.9028 32.4206 88.1202 34.2976H90.3079C91.0057 34.2976 91.6846 34.2976 92.3918 34.2976H92.4107Z" fill="#1A171B"/>
<path d="M111.449 39.7295H99.9545C100.162 37.6724 100.162 33.2833 100.162 31.994C100.162 30.5531 100.077 26.6475 99.9545 24.9316H103.99C103.887 26.638 103.802 30.5342 103.802 31.994C103.802 32.942 103.802 35.7196 103.887 37.8241H106.055C108.281 37.8241 109.931 37.7008 111.478 37.5681L111.449 39.7295Z" fill="#1A171B"/>
<path d="M130.214 24.9316V27.0835C128.173 26.9019 126.124 26.8385 124.075 26.8939H122.312C122.312 28.2875 122.246 29.9559 122.246 31.1219L127.63 30.9892V33.2359L122.265 33.179C122.265 34.4682 122.265 36.3263 122.369 37.8525C125.15 37.8525 127.904 37.7956 130.657 37.6155V39.7579H118.399C118.587 37.7008 118.606 33.3117 118.606 32.0225C118.606 30.5816 118.521 26.6759 118.418 24.9601H130.214V24.9316Z" fill="#1A171B"/>
<path d="M138.89 24.6474C140.413 24.6414 141.931 24.8325 143.406 25.2162V28.4393C141.9 27.5126 140.165 27.0297 138.399 27.0457C136.296 27.0457 136.174 27.8231 136.174 28.3729C136.174 31.0557 144.708 30.7049 144.708 35.3974C144.708 38.2413 142.143 40.0045 137.815 40.0045C136.15 40.0144 134.495 39.7584 132.911 39.2461V36.023C134.689 37.0089 136.664 37.5792 138.692 37.6915C140.351 37.6915 141.219 37.208 141.219 36.1084C141.219 33.2076 132.732 33.6342 132.732 28.7047C132.685 26.1073 135.212 24.6284 138.937 24.6284" fill="#1A171B"/>
<path d="M158.852 24.9316V27.0835C157.253 26.8909 155.644 26.7928 154.034 26.7897C153.977 28.5813 153.949 30.9323 153.949 31.9656C153.949 33.2548 153.949 37.6534 154.175 39.7295H150.054C150.262 37.6724 150.309 33.2548 150.309 31.9656C150.309 30.9323 150.252 28.5813 150.205 26.7897C148.604 26.7975 147.005 26.8957 145.415 27.0835V24.9316H158.852Z" fill="#1A171B"/>
<path d="M166.782 24.9316C167.348 26.4484 172.186 37.2553 173.327 39.7295H169.272C169.036 39.0564 168.555 37.8335 167.933 36.2409H162.105C161.643 37.4923 161.257 38.6298 160.927 39.7295H157.391C158.23 37.8904 163.171 27.1025 163.991 24.9316H166.82H166.782ZM167.141 34.2976C166.198 31.9751 165.33 29.9843 165.038 29.2923C164.368 30.7332 163.633 32.4206 162.85 34.2976H165.019C165.717 34.2976 166.415 34.2976 167.131 34.2976H167.141Z" fill="#1A171B"/>
<path d="M185.302 24.9316V27.0835C183.703 26.8957 182.094 26.7976 180.484 26.7897C180.418 28.5813 180.399 30.9323 180.399 31.9656C180.399 33.2548 180.399 37.6534 180.635 39.7295H176.514C176.721 37.6724 176.759 33.2548 176.759 31.9656C176.759 30.9323 176.702 28.5813 176.655 26.7897C175.051 26.7975 173.449 26.8957 171.856 27.0835V24.9316H185.302V24.9316Z" fill="#1A171B"/>
<path d="M199.362 24.9315V27.0834C197.321 26.9017 195.271 26.8384 193.223 26.8938H191.422C191.422 28.2873 191.356 29.9557 191.356 31.1217L196.741 30.989V33.2357L191.422 33.1125C191.422 34.4017 191.422 36.2597 191.526 37.786C194.308 37.786 197.061 37.7291 199.815 37.549V39.6914H187.556C187.745 37.6343 187.763 33.2452 187.763 31.9559C187.763 30.515 187.679 26.6094 187.575 24.8936H199.343L199.362 24.9315Z" fill="#1A171B"/>
</g>
<rect x="221" y="12.5" width="2" height="18" fill="#A3A2A0"/>
<path d="M238.305 14.5V25H243.69V23.5H239.925V14.5H238.305ZM244.019 14.5L243.254 18.055H244.559L245.639 14.5H244.019ZM247.384 17.035V25H249.019V17.035H247.384ZM247.384 14.2V15.97H249.019V14.2H247.384ZM252.824 17.035H251.354V25H252.989V18.97C253.484 18.655 254.039 18.385 254.594 18.385C255.584 18.385 255.794 18.76 255.794 19.885V25H257.429V19.615C257.429 19.39 257.414 19.165 257.384 18.97C257.864 18.67 258.494 18.385 259.034 18.385C259.844 18.385 260.234 18.67 260.234 19.66V25H261.869V19.375C261.869 17.635 261.059 16.84 259.634 16.84C258.674 16.84 257.894 17.245 257.084 17.77C256.679 17.125 256.124 16.84 255.224 16.84C254.234 16.84 253.424 17.29 252.824 17.755V17.035ZM265.509 17.035H264.039V25H265.674V18.97C266.169 18.655 266.724 18.385 267.279 18.385C268.269 18.385 268.479 18.76 268.479 19.885V25H270.114V19.615C270.114 19.39 270.099 19.165 270.069 18.97C270.549 18.67 271.179 18.385 271.719 18.385C272.529 18.385 272.919 18.67 272.919 19.66V25H274.554V19.375C274.554 17.635 273.744 16.84 272.319 16.84C271.359 16.84 270.579 17.245 269.769 17.77C269.364 17.125 268.809 16.84 267.909 16.84C266.919 16.84 266.109 17.29 265.509 17.755V17.035ZM279.485 16.84C277.34 16.84 276.185 18.1 276.185 21.025C276.185 23.995 277.385 25.195 279.485 25.195C281.63 25.195 282.77 23.815 282.77 21.055C282.77 18.04 281.72 16.84 279.485 16.84ZM279.485 18.205C280.565 18.205 281.09 18.835 281.09 21.055C281.09 23.185 280.565 23.83 279.485 23.83C278.405 23.83 277.865 23.185 277.865 21.025C277.865 18.835 278.405 18.205 279.485 18.205ZM284.576 14.05V24.16C285.431 24.805 286.676 25.195 287.711 25.195C289.511 25.195 291.041 24.145 291.041 20.935C291.041 17.65 289.676 16.84 288.386 16.84C287.531 16.84 286.856 17.155 286.211 17.545V13.75L284.576 14.05ZM286.211 18.865C286.736 18.535 287.171 18.31 287.816 18.31C288.581 18.31 289.316 18.82 289.316 20.935C289.316 23.095 288.566 23.83 287.621 23.83C287.156 23.83 286.676 23.68 286.211 23.38V18.865ZM292.794 17.035V25H294.429V17.035H292.794ZM292.794 14.2V15.97H294.429V14.2H292.794ZM296.749 14.05V23.17C296.749 24.22 297.079 25.195 298.414 25.195C298.984 25.195 299.464 25.045 300.079 24.715L299.914 23.455C299.599 23.635 299.284 23.77 298.939 23.77C298.624 23.77 298.384 23.605 298.384 23.17V13.75L296.749 14.05ZM301.173 17.035V25H302.808V17.035H301.173ZM301.173 14.2V15.97H302.808V14.2H301.173ZM310.708 21.46V20.185C310.708 18.19 309.898 16.84 307.828 16.84C305.788 16.84 304.603 18.07 304.603 21.025C304.603 24.01 305.953 25.195 307.933 25.195C309.133 25.195 309.883 24.775 310.603 24.325L310.348 23.05C309.898 23.395 309.133 23.83 308.263 23.83C307.138 23.83 306.388 23.305 306.313 21.46H310.708ZM306.328 20.185C306.403 18.79 306.823 18.205 307.798 18.205C308.743 18.205 309.133 18.835 309.133 20.185H306.328ZM312.511 17.035V25H314.146V19.285C314.611 18.805 315.076 18.445 315.511 18.445C315.961 18.445 316.006 18.775 316.021 19.255L317.416 19.09C317.416 17.92 317.191 16.84 316.006 16.84C315.301 16.84 314.641 17.11 313.981 17.815V17.035H312.511ZM326.936 22.795C326.546 23.245 325.991 23.695 325.256 23.695C324.536 23.695 323.876 22.915 323.876 20.965C323.876 18.7 324.596 18.205 325.346 18.205C326.021 18.205 326.456 18.415 326.936 18.655V22.795ZM328.511 25.195C329.051 25.195 329.591 24.985 329.891 24.67L329.786 23.485C329.531 23.68 329.261 23.8 329.006 23.8C328.751 23.8 328.571 23.635 328.571 23.26V13.75L326.936 14.05V17.335C326.246 17.005 325.676 16.84 325.001 16.84C323.531 16.84 322.166 17.965 322.166 21.04C322.166 24.205 323.606 25.195 324.896 25.195C325.871 25.195 326.606 24.715 327.191 24.055C327.266 24.925 327.881 25.195 328.511 25.195ZM331.265 14.5L330.5 18.055H331.805L332.885 14.5H331.265ZM334.435 17.035V22.45C334.435 24.31 335.695 25.195 337.42 25.195C339.145 25.195 340.405 24.31 340.405 22.45V17.035H338.77V22.495C338.77 23.515 338.14 23.83 337.42 23.83C336.7 23.83 336.07 23.515 336.07 22.495V17.035H334.435ZM344.039 17.035H342.569V25H344.204V18.97C344.714 18.64 345.374 18.385 345.974 18.385C346.889 18.385 347.219 18.73 347.219 19.705V25H348.854V19.375C348.854 17.635 347.954 16.84 346.514 16.84C345.449 16.84 344.669 17.29 344.039 17.755V17.035ZM356.52 17.035H355.05V25H356.685V18.97C357.18 18.655 357.735 18.385 358.29 18.385C359.28 18.385 359.49 18.76 359.49 19.885V25H361.125V19.615C361.125 19.39 361.11 19.165 361.08 18.97C361.56 18.67 362.19 18.385 362.73 18.385C363.54 18.385 363.93 18.67 363.93 19.66V25H365.565V19.375C365.565 17.635 364.755 16.84 363.33 16.84C362.37 16.84 361.59 17.245 360.78 17.77C360.375 17.125 359.82 16.84 358.92 16.84C357.93 16.84 357.12 17.29 356.52 17.755V17.035ZM370.495 16.84C368.35 16.84 367.195 18.1 367.195 21.025C367.195 23.995 368.395 25.195 370.495 25.195C372.64 25.195 373.78 23.815 373.78 21.055C373.78 18.04 372.73 16.84 370.495 16.84ZM370.495 18.205C371.575 18.205 372.1 18.835 372.1 21.055C372.1 23.185 371.575 23.83 370.495 23.83C369.415 23.83 368.875 23.185 368.875 21.025C368.875 18.835 369.415 18.205 370.495 18.205ZM377.057 17.035H375.587V25H377.222V18.97C377.732 18.64 378.392 18.385 378.992 18.385C379.907 18.385 380.237 18.73 380.237 19.705V25H381.872V19.375C381.872 17.635 380.972 16.84 379.532 16.84C378.467 16.84 377.687 17.29 377.057 17.755V17.035ZM388.284 22.795C387.894 23.245 387.339 23.695 386.604 23.695C385.884 23.695 385.224 22.915 385.224 20.965C385.224 18.7 385.944 18.205 386.694 18.205C387.369 18.205 387.804 18.415 388.284 18.655V22.795ZM389.859 25.195C390.399 25.195 390.939 24.985 391.239 24.67L391.134 23.485C390.879 23.68 390.609 23.8 390.354 23.8C390.099 23.8 389.919 23.635 389.919 23.26V13.75L388.284 14.05V17.335C387.594 17.005 387.024 16.84 386.349 16.84C384.879 16.84 383.514 17.965 383.514 21.04C383.514 24.205 384.954 25.195 386.244 25.195C387.219 25.195 387.954 24.715 388.539 24.055C388.614 24.925 389.229 25.195 389.859 25.195ZM398.012 21.46V20.185C398.012 18.19 397.202 16.84 395.132 16.84C393.092 16.84 391.907 18.07 391.907 21.025C391.907 24.01 393.257 25.195 395.237 25.195C396.437 25.195 397.187 24.775 397.907 24.325L397.652 23.05C397.202 23.395 396.437 23.83 395.567 23.83C394.442 23.83 393.692 23.305 393.617 21.46H398.012ZM393.632 20.185C393.707 18.79 394.127 18.205 395.102 18.205C396.047 18.205 396.437 18.835 396.437 20.185H393.632ZM408.059 28.45L409.679 28.09V17.035H408.344V17.635C407.834 17.29 407.099 16.84 406.169 16.84C404.699 16.84 403.289 17.965 403.289 21.055C403.289 24.295 404.639 25.195 405.989 25.195C406.874 25.195 407.504 24.835 408.059 24.325V28.45ZM408.059 22.855C407.669 23.29 407.099 23.83 406.364 23.83C405.674 23.83 404.999 23.2 404.999 21.07C404.999 19.105 405.599 18.265 406.484 18.265C407.114 18.265 407.654 18.625 408.059 18.895V22.855ZM411.749 17.035V22.45C411.749 24.31 413.009 25.195 414.734 25.195C416.459 25.195 417.719 24.31 417.719 22.45V17.035H416.084V22.495C416.084 23.515 415.454 23.83 414.734 23.83C414.014 23.83 413.384 23.515 413.384 22.495V17.035H411.749ZM419.884 17.035V25H421.519V17.035H419.884ZM419.884 14.2V15.97H421.519V14.2H419.884ZM433.222 19.57C433.192 18.025 432.457 16.84 430.537 16.84C428.332 16.84 427.327 18.235 427.327 21.01C427.327 23.89 428.497 25.195 430.567 25.195C431.722 25.195 432.547 24.79 433.222 24.325L432.907 23.11C432.457 23.425 431.842 23.83 430.897 23.83C429.712 23.83 429.037 23.275 429.037 21.025C429.037 18.775 429.487 18.205 430.477 18.205C431.377 18.205 431.707 18.94 431.752 19.72C432.247 19.66 432.727 19.615 433.222 19.57ZM436.621 13.765L434.986 14.065V25H436.621V18.97C437.131 18.64 437.791 18.385 438.391 18.385C439.306 18.385 439.636 18.73 439.636 19.705V25H441.271V19.375C441.271 17.635 440.371 16.84 438.931 16.84C437.971 16.84 437.221 17.2 436.621 17.635V13.765ZM447.113 22.945C446.663 23.44 446.063 23.83 445.448 23.83C444.818 23.83 444.548 23.5 444.548 22.885C444.548 21.865 445.718 21.355 447.113 21.4V22.945ZM447.113 20.17C444.878 20.155 442.928 20.995 442.928 23.035C442.928 24.475 443.813 25.195 445.058 25.195C445.898 25.195 446.753 24.835 447.353 24.085C447.428 24.955 448.118 25.195 448.688 25.195C449.228 25.195 449.768 24.985 450.068 24.67L449.963 23.485C449.708 23.68 449.438 23.8 449.183 23.8C448.928 23.8 448.748 23.635 448.748 23.26V19.105C448.748 17.68 447.698 16.84 446.048 16.84C444.548 16.84 443.258 17.665 443.213 19.285L444.653 19.435C444.653 18.61 445.238 18.205 445.943 18.205C446.618 18.205 447.113 18.505 447.113 19.255V20.17ZM452.628 17.035H451.158V25H452.793V18.97C453.303 18.64 453.963 18.385 454.563 18.385C455.478 18.385 455.808 18.73 455.808 19.705V25H457.443V19.375C457.443 17.635 456.543 16.84 455.103 16.84C454.038 16.84 453.258 17.29 452.628 17.755V17.035ZM461.575 25.24C462.805 25.405 464.155 25.39 464.155 26.365C464.155 27.055 463.075 27.46 462.04 27.46C461.11 27.46 460.255 27.28 460.255 26.56C460.255 25.99 460.93 25.54 461.575 25.24ZM465.835 17.035H463.375C463.045 16.915 462.655 16.84 462.235 16.84C460.45 16.84 459.28 18.025 459.28 19.87C459.28 20.98 459.685 21.805 460.36 22.315C459.85 22.675 459.4 23.095 459.4 23.725C459.4 24.355 459.715 24.655 460.075 24.85C459.25 25.3 458.71 25.9 458.71 26.74C458.71 28.015 460.015 28.735 461.995 28.735C463.96 28.735 465.775 27.895 465.775 26.17C465.775 23.305 460.945 24.295 460.945 23.455C460.945 23.185 461.14 23.05 461.44 22.84C461.71 22.915 461.875 22.93 462.22 22.93C463.96 22.93 465.13 21.7 465.13 19.9C465.13 19.27 465.025 18.82 464.74 18.445L465.835 18.505V17.035ZM463.63 19.885C463.63 21.115 463.09 21.61 462.22 21.61C461.35 21.61 460.81 21.115 460.81 19.885C460.81 18.655 461.35 18.16 462.22 18.16C463.09 18.16 463.63 18.655 463.63 19.885ZM472.675 21.46V20.185C472.675 18.19 471.865 16.84 469.795 16.84C467.755 16.84 466.57 18.07 466.57 21.025C466.57 24.01 467.92 25.195 469.9 25.195C471.1 25.195 471.85 24.775 472.57 24.325L472.315 23.05C471.865 23.395 471.1 23.83 470.23 23.83C469.105 23.83 468.355 23.305 468.28 21.46H472.675ZM468.295 20.185C468.37 18.79 468.79 18.205 469.765 18.205C470.71 18.205 471.1 18.835 471.1 20.185H468.295Z" fill="#383838"/>
<defs>
<linearGradient id="paint0_linear_1760_36285" x1="21.3801" y1="-1.06173" x2="21.3801" y2="44.3272" gradientUnits="userSpaceOnUse">
<stop stop-color="#007448"/>
<stop offset="0.6" stop-color="#8DC9AB"/>
<stop offset="1" stop-color="#00925B"/>
</linearGradient>
<linearGradient id="paint1_linear_1760_36285" x1="21.3412" y1="-10.6837" x2="21.3412" y2="40.3172" gradientUnits="userSpaceOnUse">
<stop stop-color="#00925B"/>
<stop offset="0.3" stop-color="#8DC9AB"/>
<stop offset="0.55" stop-color="#00925B"/>
<stop offset="0.84" stop-color="#007448"/>
<stop offset="0.89" stop-color="#007D50"/>
<stop offset="0.98" stop-color="#009566"/>
<stop offset="1" stop-color="#009C6C"/>
</linearGradient>
<clipPath id="clip0_1760_36285">
<rect width="207" height="43" fill="white"/>
</clipPath>
</defs>
</svg>
